<svg xmlns="http://www.w3.org/2000/svg" width="762" height="1245"><rect x="12" y="12" width="738" height="1221" rx="4" ry="4" fill="none" stroke="#ffdf92"></rect><svg width="16" height="16" x="37" y="37" viewBox="0 0 16 16" fill="none" xmlns="http://www.w3.org/2000/svg"><g clip-path="url(#clip0_1343_12511)"><path d="M12.278 13.5H3.722C3.04667 13.5 2.5 12.9527 2.5 12.278V3.722C2.5 3.04667 3.04733 2.5 3.722 2.5H12.2773C12.9527 2.5 13.4993 3.04733 13.4993 3.722V12.2773C13.5 12.9527 12.9527 13.5 12.278 13.5V13.5Z" stroke="#FFCF5C" stroke-width="1.5" stroke-linecap="round" stroke-linejoin="round"></path></g><defs><clipPath id="clip0_1343_12511"><rect width="16" height="16" fill="white"></rect></clipPath></defs></svg><text font-weight="600" x="57" y="50" width="668" height="10">Order flow</text><path d="M 37 57 L 725 57" stroke="#ffdf92"></path><svg x="12" y="12" width="738" height="1221"><rect x="133.33333333333334" y="50" width="222" height="93" rx="4" ry="4" fill="#ffefc919" stroke="#ffdf92"></rect><svg width="16" height="16" x="158.33333333333334" y="75" viewBox="0 0 16 16" fill="none" xmlns="http://www.w3.org/2000/svg"><g clip-path="url(#clip0_1343_12511)"><path d="M12.278 13.5H3.722C3.04667 13.5 2.5 12.9527 2.5 12.278V3.722C2.5 3.04667 3.04733 2.5 3.722 2.5H12.2773C12.9527 2.5 13.4993 3.04733 13.4993 3.722V12.2773C13.5 12.9527 12.9527 13.5 12.278 13.5V13.5Z" stroke="#FFCF5C" stroke-width="1.5" stroke-linecap="round" stroke-linejoin="round"></path></g><defs><clipPath id="clip0_1343_12511"><rect width="16" height="16" fill="white"></rect></clipPath></defs></svg><text font-weight="600" x="178.33333333333334" y="88" width="152" height="10">Create order</text><path d="M 158.33333333333334 95 L 330.33333333333337 95" stroke="#ffdf92"></path><svg width="16" height="16" x="158.33333333333334" y="102" viewBox="0 0 16 16" fill="none" xmlns="http://www.w3.org/2000/svg"><g clip-path="url(#clip0_217_22)"><mask id="mask0_217_22" maskUnits="userSpaceOnUse" x="0" y="0" width="16" height="16" style="mask-type: luminance;"><path d="M16 0H0V16H16V0Z" fill="white"></path></mask><g mask="url(#mask0_217_22)"><path d="M12.5486 7.71666L8.54124 13.5053C8.1739 14.0353 7.34257 13.776 7.34257 13.1307V9.31533H3.99257C3.4619 9.31533 3.14924 8.71933 3.4519 8.28266L7.45924 2.49399C7.82657 1.96399 8.6579 2.22333 8.6579 2.86866V6.68399H12.0079C12.5379 6.68399 12.8506 7.27999 12.5486 7.71666Z" stroke="#00A3FF" stroke-width="1.5" stroke-linecap="round" stroke-linejoin="round"></path></g><path d="M3 11L5 13" stroke="#00A3FF" stroke-width="1.5" stroke-linecap="round"></path><path d="M3 15.0096L4.9997 13.0099" stroke="#00A3FF" stroke-width="1.5" stroke-linecap="round"></path></g><defs><clipPath id="clip0_217_22"><rect width="16" height="16" fill="white"></rect></clipPath></defs></svg><text x="178.33333333333334" y="118" width="152.00000000000003" height="16.2">Offer to restaurant</text><rect x="116.33333333333334" y="383" width="182" height="70" rx="4" ry="4" fill="#ffefc919" stroke="#ffdf92"></rect><svg width="16" height="16" x="141.33333333333334" y="410" viewBox="0 0 16 16" fill="none" xmlns="http://www.w3.org/2000/svg"><g clip-path="url(#clip0_1343_12511)"><path d="M12.278 13.5H3.722C3.04667 13.5 2.5 12.9527 2.5 12.278V3.722C2.5 3.04667 3.04733 2.5 3.722 2.5H12.2773C12.9527 2.5 13.4993 3.04733 13.4993 3.722V12.2773C13.5 12.9527 12.9527 13.5 12.278 13.5V13.5Z" stroke="#FFCF5C" stroke-width="1.5" stroke-linecap="round" stroke-linejoin="round"></path></g><defs><clipPath id="clip0_1343_12511"><rect width="16" height="16" fill="white"></rect></clipPath></defs></svg><text font-weight="600" x="161.33333333333334" y="423" width="112" height="10">Order accepted</text><rect x="78" y="623" width="198" height="93" rx="4" ry="4" fill="#ffefc919" stroke="#ffdf92"></rect><svg width="16" height="16" x="103" y="648" viewBox="0 0 16 16" fill="none" xmlns="http://www.w3.org/2000/svg"><g clip-path="url(#clip0_1343_12511)"><path d="M12.278 13.5H3.722C3.04667 13.5 2.5 12.9527 2.5 12.278V3.722C2.5 3.04667 3.04733 2.5 3.722 2.5H12.2773C12.9527 2.5 13.4993 3.04733 13.4993 3.722V12.2773C13.5 12.9527 12.9527 13.5 12.278 13.5V13.5Z" stroke="#FFCF5C" stroke-width="1.5" stroke-linecap="round" stroke-linejoin="round"></path></g><defs><clipPath id="clip0_1343_12511"><rect width="16" height="16" fill="white"></rect></clipPath></defs></svg><text font-weight="600" x="123" y="661" width="128" height="10">Order ready</text><path d="M 103 668 L 251 668" stroke="#ffdf92"></path><svg width="16" height="16" x="103" y="675" viewBox="0 0 16 16" fill="none" xmlns="http://www.w3.org/2000/svg"><g clip-path="url(#clip0_217_22)"><mask id="mask0_217_22" maskUnits="userSpaceOnUse" x="0" y="0" width="16" height="16" style="mask-type: luminance;"><path d="M16 0H0V16H16V0Z" fill="white"></path></mask><g mask="url(#mask0_217_22)"><path d="M12.5486 7.71666L8.54124 13.5053C8.1739 14.0353 7.34257 13.776 7.34257 13.1307V9.31533H3.99257C3.4619 9.31533 3.14924 8.71933 3.4519 8.28266L7.45924 2.49399C7.82657 1.96399 8.6579 2.22333 8.6579 2.86866V6.68399H12.0079C12.5379 6.68399 12.8506 7.27999 12.5486 7.71666Z" stroke="#00A3FF" stroke-width="1.5" stroke-linecap="round" stroke-linejoin="round"></path></g><path d="M3 11L5 13" stroke="#00A3FF" stroke-width="1.5" stroke-linecap="round"></path><path d="M3 15.0096L4.9997 13.0099" stroke="#00A3FF" stroke-width="1.5" stroke-linecap="round"></path></g><defs><clipPath id="clip0_217_22"><rect width="16" height="16" fill="white"></rect></clipPath></defs></svg><text x="123" y="691" width="128" height="16.2">Offer to courier</text><rect x="25" y="886" width="238" height="70" rx="4" ry="4" fill="#ffefc919" stroke="#ffdf92"></rect><svg width="16" height="16" x="50" y="913" viewBox="0 0 16 16" fill="none" xmlns="http://www.w3.org/2000/svg"><g clip-path="url(#clip0_1343_12511)"><path d="M12.278 13.5H3.722C3.04667 13.5 2.5 12.9527 2.5 12.278V3.722C2.5 3.04667 3.04733 2.5 3.722 2.5H12.2773C12.9527 2.5 13.4993 3.04733 13.4993 3.722V12.2773C13.5 12.9527 12.9527 13.5 12.278 13.5V13.5Z" stroke="#FFCF5C" stroke-width="1.5" stroke-linecap="round" stroke-linejoin="round"></path></g><defs><clipPath id="clip0_1343_12511"><rect width="16" height="16" fill="white"></rect></clipPath></defs></svg><text font-weight="600" x="70" y="926" width="168" height="10">Courier is on the way</text><rect x="41" y="1126" width="206" height="70" rx="4" ry="4" fill="#ffefc919" stroke="#ffdf92"></rect><svg width="16" height="16" x="66" y="1153" viewBox="0 0 16 16" fill="none" xmlns="http://www.w3.org/2000/svg"><g clip-path="url(#clip0_1343_12511)"><path d="M12.278 13.5H3.722C3.04667 13.5 2.5 12.9527 2.5 12.278V3.722C2.5 3.04667 3.04733 2.5 3.722 2.5H12.2773C12.9527 2.5 13.4993 3.04733 13.4993 3.722V12.2773C13.5 12.9527 12.9527 13.5 12.278 13.5V13.5Z" stroke="#FFCF5C" stroke-width="1.5" stroke-linecap="round" stroke-linejoin="round"></path></g><defs><clipPath id="clip0_1343_12511"><rect width="16" height="16" fill="white"></rect></clipPath></defs></svg><text font-weight="600" x="86" y="1166" width="136" height="10">Delivery complete</text><rect x="387.5" y="886" width="182" height="70" rx="4" ry="4" fill="#ffefc919" stroke="#ffdf92"></rect><svg width="16" height="16" x="412.5" y="913" viewBox="0 0 16 16" fill="none" xmlns="http://www.w3.org/2000/svg"><g clip-path="url(#clip0_1343_12511)"><path d="M12.278 13.5H3.722C3.04667 13.5 2.5 12.9527 2.5 12.278V3.722C2.5 3.04667 3.04733 2.5 3.722 2.5H12.2773C12.9527 2.5 13.4993 3.04733 13.4993 3.722V12.2773C13.5 12.9527 12.9527 13.5 12.278 13.5V13.5Z" stroke="#FFCF5C" stroke-width="1.5" stroke-linecap="round" stroke-linejoin="round"></path></g><defs><clipPath id="clip0_1343_12511"><rect width="16" height="16" fill="white"></rect></clipPath></defs></svg><text font-weight="600" x="432.5" y="926" width="112" height="10">Order canceled</text><rect x="96.33333333333334" y="193" width="222" height="70" rx="4" ry="4" fill="#cebdff66" stroke="#a88aff"></rect><svg width="16" height="16" x="121.33333333333334" y="220" viewBox="0 0 16 16" fill="none" xmlns="http://www.w3.org/2000/svg"><g clip-path="url(#clip0_1343_12529)"><path d="M5.37063 7.99998L3.18317 10.1876C2.93894 10.4318 2.93894 10.8272 3.18317 11.0709L4.92902 12.8168C5.17325 13.0611 5.56864 13.0611 5.81225 12.8168L7.99971 10.6292L9.30894 11.9385C9.63749 12.2671 10.1965 12.1347 10.3433 11.6943L12.9668 3.82281C13.1298 3.33494 12.6651 2.87018 12.1766 3.03322L4.30564 5.65684C3.86527 5.80364 3.73285 6.36272 4.06141 6.6913L5.37063 7.99998Z" stroke="#8753DD" stroke-width="1.5" stroke-linecap="round" stroke-linejoin="round"></path></g><defs><clipPath id="clip0_1343_12529"><rect width="16" height="16" fill="white"></rect></clipPath></defs></svg><text font-weight="600" x="141.33333333333334" y="233" width="152" height="10">Restaurant accepted</text><rect x="491" y="288" width="222" height="70" rx="4" ry="4" fill="#cebdff66" stroke="#a88aff"></rect><svg width="16" height="16" x="516" y="315" viewBox="0 0 16 16" fill="none" xmlns="http://www.w3.org/2000/svg"><g clip-path="url(#clip0_1343_12529)"><path d="M5.37063 7.99998L3.18317 10.1876C2.93894 10.4318 2.93894 10.8272 3.18317 11.0709L4.92902 12.8168C5.17325 13.0611 5.56864 13.0611 5.81225 12.8168L7.99971 10.6292L9.30894 11.9385C9.63749 12.2671 10.1965 12.1347 10.3433 11.6943L12.9668 3.82281C13.1298 3.33494 12.6651 2.87018 12.1766 3.03322L4.30564 5.65684C3.86527 5.80364 3.73285 6.36272 4.06141 6.6913L5.37063 7.99998Z" stroke="#8753DD" stroke-width="1.5" stroke-linecap="round" stroke-linejoin="round"></path></g><defs><clipPath id="clip0_1343_12529"><rect width="16" height="16" fill="white"></rect></clipPath></defs></svg><text font-weight="600" x="536" y="328" width="152" height="10">Restaurant rejected</text><rect x="367.5" y="503" width="222" height="70" rx="4" ry="4" fill="#cebdff66" stroke="#a88aff"></rect><svg width="16" height="16" x="392.5" y="530" viewBox="0 0 16 16" fill="none" xmlns="http://www.w3.org/2000/svg"><g clip-path="url(#clip0_1343_12529)"><path d="M5.37063 7.99998L3.18317 10.1876C2.93894 10.4318 2.93894 10.8272 3.18317 11.0709L4.92902 12.8168C5.17325 13.0611 5.56864 13.0611 5.81225 12.8168L7.99971 10.6292L9.30894 11.9385C9.63749 12.2671 10.1965 12.1347 10.3433 11.6943L12.9668 3.82281C13.1298 3.33494 12.6651 2.87018 12.1766 3.03322L4.30564 5.65684C3.86527 5.80364 3.73285 6.36272 4.06141 6.6913L5.37063 7.99998Z" stroke="#8753DD" stroke-width="1.5" stroke-linecap="round" stroke-linejoin="round"></path></g><defs><clipPath id="clip0_1343_12529"><rect width="16" height="16" fill="white"></rect></clipPath></defs></svg><text font-weight="600" x="412.5" y="543" width="152" height="10">Restaurant rejected</text><rect x="30" y="503" width="294" height="70" rx="4" ry="4" fill="#cebdff66" stroke="#a88aff"></rect><svg width="16" height="16" x="55" y="530" viewBox="0 0 16 16" fill="none" xmlns="http://www.w3.org/2000/svg"><g clip-path="url(#clip0_1343_12529)"><path d="M5.37063 7.99998L3.18317 10.1876C2.93894 10.4318 2.93894 10.8272 3.18317 11.0709L4.92902 12.8168C5.17325 13.0611 5.56864 13.0611 5.81225 12.8168L7.99971 10.6292L9.30894 11.9385C9.63749 12.2671 10.1965 12.1347 10.3433 11.6943L12.9668 3.82281C13.1298 3.33494 12.6651 2.87018 12.1766 3.03322L4.30564 5.65684C3.86527 5.80364 3.73285 6.36272 4.06141 6.6913L5.37063 7.99998Z" stroke="#8753DD" stroke-width="1.5" stroke-linecap="round" stroke-linejoin="round"></path></g><defs><clipPath id="clip0_1343_12529"><rect width="16" height="16" fill="white"></rect></clipPath></defs></svg><text font-weight="600" x="75" y="543" width="224" height="10">Restaurant prep time elapsed</text><rect x="45" y="766" width="198" height="70" rx="4" ry="4" fill="#cebdff66" stroke="#a88aff"></rect><svg width="16" height="16" x="70" y="793" viewBox="0 0 16 16" fill="none" xmlns="http://www.w3.org/2000/svg"><g clip-path="url(#clip0_1343_12529)"><path d="M5.37063 7.99998L3.18317 10.1876C2.93894 10.4318 2.93894 10.8272 3.18317 11.0709L4.92902 12.8168C5.17325 13.0611 5.56864 13.0611 5.81225 12.8168L7.99971 10.6292L9.30894 11.9385C9.63749 12.2671 10.1965 12.1347 10.3433 11.6943L12.9668 3.82281C13.1298 3.33494 12.6651 2.87018 12.1766 3.03322L4.30564 5.65684C3.86527 5.80364 3.73285 6.36272 4.06141 6.6913L5.37063 7.99998Z" stroke="#8753DD" stroke-width="1.5" stroke-linecap="round" stroke-linejoin="round"></path></g><defs><clipPath id="clip0_1343_12529"><rect width="16" height="16" fill="white"></rect></clipPath></defs></svg><text font-weight="600" x="90" y="806" width="128" height="10">Courier accepted</text><rect x="268" y="766" width="198" height="70" rx="4" ry="4" fill="#cebdff66" stroke="#a88aff"></rect><svg width="16" height="16" x="293" y="793" viewBox="0 0 16 16" fill="none" xmlns="http://www.w3.org/2000/svg"><g clip-path="url(#clip0_1343_12529)"><path d="M5.37063 7.99998L3.18317 10.1876C2.93894 10.4318 2.93894 10.8272 3.18317 11.0709L4.92902 12.8168C5.17325 13.0611 5.56864 13.0611 5.81225 12.8168L7.99971 10.6292L9.30894 11.9385C9.63749 12.2671 10.1965 12.1347 10.3433 11.6943L12.9668 3.82281C13.1298 3.33494 12.6651 2.87018 12.1766 3.03322L4.30564 5.65684C3.86527 5.80364 3.73285 6.36272 4.06141 6.6913L5.37063 7.99998Z" stroke="#8753DD" stroke-width="1.5" stroke-linecap="round" stroke-linejoin="round"></path></g><defs><clipPath id="clip0_1343_12529"><rect width="16" height="16" fill="white"></rect></clipPath></defs></svg><text font-weight="600" x="313" y="806" width="128" height="10">Courier rejected</text><rect x="49" y="1006" width="190" height="70" rx="4" ry="4" fill="#cebdff66" stroke="#a88aff"></rect><svg width="16" height="16" x="74" y="1033" viewBox="0 0 16 16" fill="none" xmlns="http://www.w3.org/2000/svg"><g clip-path="url(#clip0_1343_12529)"><path d="M5.37063 7.99998L3.18317 10.1876C2.93894 10.4318 2.93894 10.8272 3.18317 11.0709L4.92902 12.8168C5.17325 13.0611 5.56864 13.0611 5.81225 12.8168L7.99971 10.6292L9.30894 11.9385C9.63749 12.2671 10.1965 12.1347 10.3433 11.6943L12.9668 3.82281C13.1298 3.33494 12.6651 2.87018 12.1766 3.03322L4.30564 5.65684C3.86527 5.80364 3.73285 6.36272 4.06141 6.6913L5.37063 7.99998Z" stroke="#8753DD" stroke-width="1.5" stroke-linecap="round" stroke-linejoin="round"></path></g><defs><clipPath id="clip0_1343_12529"><rect width="16" height="16" fill="white"></rect></clipPath></defs></svg><text font-weight="600" x="94" y="1046" width="120" height="10">Order delivered</text><svg x1="0" y1="0" width="100%" height="100%"><g><defs><marker id="end-flow-0" viewBox="0 0 10 10" markerWidth="7" markerHeight="7" refX="0" refY="5" markerUnits="strokeWidth" orient="auto"><path stroke="none" fill="#8753dd" d="M0,0 h5 q5,0 5,5 q0,5 -5,5 h-5 z"></path><path stroke-width="1" stroke="#000" d="M0,5 h4"></path><circle cx="4" cy="5" r="2"></circle></marker><marker id="start-flow-0" viewBox="0 0 10 10" markerWidth="7" markerHeight="7" refX="0" refY="5" markerUnits="strokeWidth" orient="auto"><path stroke="none" fill="#ffcf5c" d="M0,0 h5 q5,0 5,5 q0,5 -5,5 h-5 z"></path><path stroke-width="1" stroke="#000" d="M0,5 h4"></path><circle cx="4" cy="5" r="2"></circle></marker></defs><path stroke="#000" stroke-width="2" fill="none" d="M 207.33333333333334,143 L 207.33333333333334,143 L 207.33333333333334,193" marker-end="url(#end-flow-0)"></path><path stroke="none" stroke-width="2" fill="none" d="M 207.33333333333334,193 L 207.33333333333334,193 L 207.33333333333334,143" marker-end="url(#start-flow-0)"></path></g><g><defs><marker id="end-flow-1" viewBox="0 0 10 10" markerWidth="7" markerHeight="7" refX="0" refY="5" markerUnits="strokeWidth" orient="auto"><path stroke="none" fill="#ffcf5c" d="M0,0 h5 q5,0 5,5 q0,5 -5,5 h-5 z"></path><path stroke="none" fill="#000" d="M1.43,5 L2,5 L2,2 L8.57,5 L2,8.57 L2,5 z"></path><path stroke="#000" fill="none" stroke-width="1" d="M0,5 L2,5"></path></marker><marker id="start-flow-1" viewBox="0 0 10 10" markerWidth="7" markerHeight="7" refX="0" refY="5" markerUnits="strokeWidth" orient="auto"><path stroke="none" fill="#8753dd" d="M0,0 h5 q5,0 5,5 q0,5 -5,5 h-5 z"></path><path stroke-width="1" stroke="#000" d="M0,5 h4"></path><circle cx="4" cy="5" r="2"></circle></marker></defs><path stroke="#000" stroke-width="2" fill="none" d="M 207.33333333333334,263 L 207.33333333333334,263 L 207.33333333333334,383" marker-end="url(#end-flow-1)"></path><path stroke="none" stroke-width="2" fill="none" d="M 207.33333333333334,383 L 207.33333333333334,383 L 207.33333333333334,263" marker-end="url(#start-flow-1)"></path></g><g><defs><marker id="end-flow-2" viewBox="0 0 10 10" markerWidth="7" markerHeight="7" refX="0" refY="5" markerUnits="strokeWidth" orient="auto"><path stroke="none" fill="#8753dd" d="M0,0 h5 q5,0 5,5 q0,5 -5,5 h-5 z"></path><path stroke-width="1" stroke="#000" d="M0,5 h4"></path><circle cx="4" cy="5" r="2"></circle></marker><marker id="start-flow-2" viewBox="0 0 10 10" markerWidth="7" markerHeight="7" refX="0" refY="5" markerUnits="strokeWidth" orient="auto"><path stroke="none" fill="#ffcf5c" d="M0,0 h5 q5,0 5,5 q0,5 -5,5 h-5 z"></path><path stroke-width="1" stroke="#000" d="M0,5 h4"></path><circle cx="4" cy="5" r="2"></circle></marker></defs><path stroke="#000" stroke-width="2" fill="none" d="M 281.33333333333337,143 L 281.33333333333337,143 L 281.33333333333337,149.25 L 281.33333333333337,149.35 C 281.33333333333337,149.35 281.33333333333337,155.5 287.48333333333335,155.5 L 441.6666666666667,155.5 L 592,155.5 C 592,155.5 602,155.5 602,165.5 L 602,288" marker-end="url(#end-flow-2)"></path><path stroke="none" stroke-width="2" fill="none" d="M 602,288 L 602,288 L 602,221.75 L 602,165.5 C 602,165.5 602,155.5 592,155.5 L 441.6666666666667,155.5 L 291.33333333333337,155.5 C 291.33333333333337,155.5 281.33333333333337,155.5 281.33333333333337,145.5 L 281.33333333333337,143" marker-end="url(#start-flow-2)"></path></g><g><defs><marker id="end-flow-3" viewBox="0 0 10 10" markerWidth="7" markerHeight="7" refX="0" refY="5" markerUnits="strokeWidth" orient="auto"><path stroke="none" fill="#ffcf5c" d="M0,0 h5 q5,0 5,5 q0,5 -5,5 h-5 z"></path><path stroke="none" fill="#000" d="M1.43,5 L2,5 L2,2 L8.57,5 L2,8.57 L2,5 z"></path><path stroke="#000" fill="none" stroke-width="1" d="M0,5 L2,5"></path></marker><marker id="start-flow-3" viewBox="0 0 10 10" markerWidth="7" markerHeight="7" refX="0" refY="5" markerUnits="strokeWidth" orient="auto"><path stroke="none" fill="#8753dd" d="M0,0 h5 q5,0 5,5 q0,5 -5,5 h-5 z"></path><path stroke-width="1" stroke="#000" d="M0,5 h4"></path><circle cx="4" cy="5" r="2"></circle></marker></defs><path stroke="#000" stroke-width="2" fill="none" d="M 602,358 L 602,358 L 602,615.75 L 602,863.5 C 602,863.5 602,873.5 592,873.5 L 563,873.5 L 534,873.5 C 534,873.5 524,873.5 524,883.5 L 524,886" marker-end="url(#end-flow-3)"></path><path stroke="none" stroke-width="2" fill="none" d="M 524,886 L 524,886 L 524,879.75 L 524,879.65 C 524,879.65 524,873.5 530.15,873.5 L 563,873.5 L 592,873.5 C 592,873.5 602,873.5 602,863.5 L 602,358" marker-end="url(#start-flow-3)"></path></g><g><defs><marker id="end-flow-4" viewBox="0 0 10 10" markerWidth="7" markerHeight="7" refX="0" refY="5" markerUnits="strokeWidth" orient="auto"><path stroke="none" fill="#8753dd" d="M0,0 h5 q5,0 5,5 q0,5 -5,5 h-5 z"></path><path stroke-width="1" stroke="#000" d="M0,5 h4"></path><circle cx="4" cy="5" r="2"></circle></marker><marker id="start-flow-4" viewBox="0 0 10 10" markerWidth="7" markerHeight="7" refX="0" refY="5" markerUnits="strokeWidth" orient="auto"><path stroke="none" fill="#ffcf5c" d="M0,0 h5 q5,0 5,5 q0,5 -5,5 h-5 z"></path><path stroke-width="1" stroke="#000" d="M0,5 h4"></path><circle cx="4" cy="5" r="2"></circle></marker></defs><path stroke="#000" stroke-width="2" fill="none" d="M 237.66666666666669,453 L 237.66666666666669,453 L 237.66666666666669,459.25 L 237.66666666666669,459.35 C 237.66666666666669,459.35 237.66666666666669,465.5 243.8166666666667,465.5 L 358.08333333333337,465.5 L 468.5,465.5 C 468.5,465.5 478.5,465.5 478.5,475.5 L 478.5,503" marker-end="url(#end-flow-4)"></path><path stroke="none" stroke-width="2" fill="none" d="M 478.5,503 L 478.5,503 L 478.5,484.25 L 478.5,475.5 C 478.5,475.5 478.5,465.5 468.5,465.5 L 358.08333333333337,465.5 L 247.66666666666669,465.5 C 247.66666666666669,465.5 237.66666666666669,465.5 237.66666666666669,455.5 L 237.66666666666669,453" marker-end="url(#start-flow-4)"></path></g><g><defs><marker id="end-flow-5" viewBox="0 0 10 10" markerWidth="7" markerHeight="7" refX="0" refY="5" markerUnits="strokeWidth" orient="auto"><path stroke="none" fill="#ffcf5c" d="M0,0 h5 q5,0 5,5 q0,5 -5,5 h-5 z"></path><path stroke="none" fill="#000" d="M1.43,5 L2,5 L2,2 L8.57,5 L2,8.57 L2,5 z"></path><path stroke="#000" fill="none" stroke-width="1" d="M0,5 L2,5"></path></marker><marker id="start-flow-5" viewBox="0 0 10 10" markerWidth="7" markerHeight="7" refX="0" refY="5" markerUnits="strokeWidth" orient="auto"><path stroke="none" fill="#8753dd" d="M0,0 h5 q5,0 5,5 q0,5 -5,5 h-5 z"></path><path stroke-width="1" stroke="#000" d="M0,5 h4"></path><circle cx="4" cy="5" r="2"></circle></marker></defs><path stroke="#000" stroke-width="2" fill="none" d="M 478.5,573 L 478.5,573 L 478.5,886" marker-end="url(#end-flow-5)"></path><path stroke="none" stroke-width="2" fill="none" d="M 478.5,886 L 478.5,886 L 478.5,573" marker-end="url(#start-flow-5)"></path></g><g><defs><marker id="end-flow-6" viewBox="0 0 10 10" markerWidth="7" markerHeight="7" refX="0" refY="5" markerUnits="strokeWidth" orient="auto"><path stroke="none" fill="#8753dd" d="M0,0 h5 q5,0 5,5 q0,5 -5,5 h-5 z"></path><path stroke-width="1" stroke="#000" d="M0,5 h4"></path><circle cx="4" cy="5" r="2"></circle></marker><marker id="start-flow-6" viewBox="0 0 10 10" markerWidth="7" markerHeight="7" refX="0" refY="5" markerUnits="strokeWidth" orient="auto"><path stroke="none" fill="#ffcf5c" d="M0,0 h5 q5,0 5,5 q0,5 -5,5 h-5 z"></path><path stroke-width="1" stroke="#000" d="M0,5 h4"></path><circle cx="4" cy="5" r="2"></circle></marker></defs><path stroke="#000" stroke-width="2" fill="none" d="M 177,453 L 177,453 L 177,503" marker-end="url(#end-flow-6)"></path><path stroke="none" stroke-width="2" fill="none" d="M 177,503 L 177,503 L 177,453" marker-end="url(#start-flow-6)"></path></g><g><defs><marker id="end-flow-7" viewBox="0 0 10 10" markerWidth="7" markerHeight="7" refX="0" refY="5" markerUnits="strokeWidth" orient="auto"><path stroke="none" fill="#ffcf5c" d="M0,0 h5 q5,0 5,5 q0,5 -5,5 h-5 z"></path><path stroke="none" fill="#000" d="M1.43,5 L2,5 L2,2 L8.57,5 L2,8.57 L2,5 z"></path><path stroke="#000" fill="none" stroke-width="1" d="M0,5 L2,5"></path></marker><marker id="start-flow-7" viewBox="0 0 10 10" markerWidth="7" markerHeight="7" refX="0" refY="5" markerUnits="strokeWidth" orient="auto"><path stroke="none" fill="#8753dd" d="M0,0 h5 q5,0 5,5 q0,5 -5,5 h-5 z"></path><path stroke-width="1" stroke="#000" d="M0,5 h4"></path><circle cx="4" cy="5" r="2"></circle></marker></defs><path stroke="#000" stroke-width="2" fill="none" d="M 177,573 L 177,573 L 177,623" marker-end="url(#end-flow-7)"></path><path stroke="none" stroke-width="2" fill="none" d="M 177,623 L 177,623 L 177,573" marker-end="url(#start-flow-7)"></path></g><g><defs><marker id="end-flow-8" viewBox="0 0 10 10" markerWidth="7" markerHeight="7" refX="0" refY="5" markerUnits="strokeWidth" orient="auto"><path stroke="none" fill="#8753dd" d="M0,0 h5 q5,0 5,5 q0,5 -5,5 h-5 z"></path><path stroke-width="1" stroke="#000" d="M0,5 h4"></path><circle cx="4" cy="5" r="2"></circle></marker><marker id="start-flow-8" viewBox="0 0 10 10" markerWidth="7" markerHeight="7" refX="0" refY="5" markerUnits="strokeWidth" orient="auto"><path stroke="none" fill="#ffcf5c" d="M0,0 h5 q5,0 5,5 q0,5 -5,5 h-5 z"></path><path stroke-width="1" stroke="#000" d="M0,5 h4"></path><circle cx="4" cy="5" r="2"></circle></marker></defs><path stroke="#000" stroke-width="2" fill="none" d="M 144,716 L 144,716 L 144,766" marker-end="url(#end-flow-8)"></path><path stroke="none" stroke-width="2" fill="none" d="M 144,766 L 144,766 L 144,716" marker-end="url(#start-flow-8)"></path></g><g><defs><marker id="end-flow-9" viewBox="0 0 10 10" markerWidth="7" markerHeight="7" refX="0" refY="5" markerUnits="strokeWidth" orient="auto"><path stroke="none" fill="#ffcf5c" d="M0,0 h5 q5,0 5,5 q0,5 -5,5 h-5 z"></path><path stroke="none" fill="#000" d="M1.43,5 L2,5 L2,2 L8.57,5 L2,8.57 L2,5 z"></path><path stroke="#000" fill="none" stroke-width="1" d="M0,5 L2,5"></path></marker><marker id="start-flow-9" viewBox="0 0 10 10" markerWidth="7" markerHeight="7" refX="0" refY="5" markerUnits="strokeWidth" orient="auto"><path stroke="none" fill="#8753dd" d="M0,0 h5 q5,0 5,5 q0,5 -5,5 h-5 z"></path><path stroke-width="1" stroke="#000" d="M0,5 h4"></path><circle cx="4" cy="5" r="2"></circle></marker></defs><path stroke="#000" stroke-width="2" fill="none" d="M 144,836 L 144,836 L 144,886" marker-end="url(#end-flow-9)"></path><path stroke="none" stroke-width="2" fill="none" d="M 144,886 L 144,886 L 144,836" marker-end="url(#start-flow-9)"></path></g><g><defs><marker id="end-flow-10" viewBox="0 0 10 10" markerWidth="7" markerHeight="7" refX="0" refY="5" markerUnits="strokeWidth" orient="auto"><path stroke="none" fill="#8753dd" d="M0,0 h5 q5,0 5,5 q0,5 -5,5 h-5 z"></path><path stroke-width="1" stroke="#000" d="M0,5 h4"></path><circle cx="4" cy="5" r="2"></circle></marker><marker id="start-flow-10" viewBox="0 0 10 10" markerWidth="7" markerHeight="7" refX="0" refY="5" markerUnits="strokeWidth" orient="auto"><path stroke="none" fill="#ffcf5c" d="M0,0 h5 q5,0 5,5 q0,5 -5,5 h-5 z"></path><path stroke-width="1" stroke="#000" d="M0,5 h4"></path><circle cx="4" cy="5" r="2"></circle></marker></defs><path stroke="#000" stroke-width="2" fill="none" d="M 210,716 L 210,716 L 210,722.25 L 210,722.35 C 210,722.35 210,728.5 216.15,728.5 L 288.5,728.5 L 357,728.5 C 357,728.5 367,728.5 367,738.5 L 367,766" marker-end="url(#end-flow-10)"></path><path stroke="none" stroke-width="2" fill="none" d="M 367,766 L 367,766 L 367,747.25 L 367,738.5 C 367,738.5 367,728.5 357,728.5 L 288.5,728.5 L 220,728.5 C 220,728.5 210,728.5 210,718.5 L 210,716" marker-end="url(#start-flow-10)"></path></g><g><defs><marker id="end-flow-11" viewBox="0 0 10 10" markerWidth="7" markerHeight="7" refX="0" refY="5" markerUnits="strokeWidth" orient="auto"><path stroke="none" fill="#ffcf5c" d="M0,0 h5 q5,0 5,5 q0,5 -5,5 h-5 z"></path><path stroke="none" fill="#000" d="M1.43,5 L2,5 L2,2 L8.57,5 L2,8.57 L2,5 z"></path><path stroke="#000" fill="none" stroke-width="1" d="M0,5 L2,5"></path></marker><marker id="start-flow-11" viewBox="0 0 10 10" markerWidth="7" markerHeight="7" refX="0" refY="5" markerUnits="strokeWidth" orient="auto"><path stroke="none" fill="#8753dd" d="M0,0 h5 q5,0 5,5 q0,5 -5,5 h-5 z"></path><path stroke-width="1" stroke="#000" d="M0,5 h4"></path><circle cx="4" cy="5" r="2"></circle></marker></defs><path stroke="#000" stroke-width="2" fill="none" d="M 367,836 L 367,836 L 367,854.75 L 367,863.5 C 367,863.5 367,873.5 377,873.5 L 400,873.5 L 423,873.5 C 423,873.5 433,873.5 433,883.5 L 433,886" marker-end="url(#end-flow-11)"></path><path stroke="none" stroke-width="2" fill="none" d="M 433,886 L 433,886 L 433,879.75 L 433,879.65 C 433,879.65 433,873.5 426.85,873.5 L 400,873.5 L 377,873.5 C 377,873.5 367,873.5 367,863.5 L 367,836" marker-end="url(#start-flow-11)"></path></g><g><defs><marker id="end-flow-12" viewBox="0 0 10 10" markerWidth="7" markerHeight="7" refX="0" refY="5" markerUnits="strokeWidth" orient="auto"><path stroke="none" fill="#8753dd" d="M0,0 h5 q5,0 5,5 q0,5 -5,5 h-5 z"></path><path stroke-width="1" stroke="#000" d="M0,5 h4"></path><circle cx="4" cy="5" r="2"></circle></marker><marker id="start-flow-12" viewBox="0 0 10 10" markerWidth="7" markerHeight="7" refX="0" refY="5" markerUnits="strokeWidth" orient="auto"><path stroke="none" fill="#ffcf5c" d="M0,0 h5 q5,0 5,5 q0,5 -5,5 h-5 z"></path><path stroke-width="1" stroke="#000" d="M0,5 h4"></path><circle cx="4" cy="5" r="2"></circle></marker></defs><path stroke="#000" stroke-width="2" fill="none" d="M 144,956 L 144,956 L 144,1006" marker-end="url(#end-flow-12)"></path><path stroke="none" stroke-width="2" fill="none" d="M 144,1006 L 144,1006 L 144,956" marker-end="url(#start-flow-12)"></path></g><g><defs><marker id="end-flow-13" viewBox="0 0 10 10" markerWidth="7" markerHeight="7" refX="0" refY="5" markerUnits="strokeWidth" orient="auto"><path stroke="none" fill="#ffcf5c" d="M0,0 h5 q5,0 5,5 q0,5 -5,5 h-5 z"></path><path stroke="none" fill="#000" d="M1.43,5 L2,5 L2,2 L8.57,5 L2,8.57 L2,5 z"></path><path stroke="#000" fill="none" stroke-width="1" d="M0,5 L2,5"></path></marker><marker id="start-flow-13" viewBox="0 0 10 10" markerWidth="7" markerHeight="7" refX="0" refY="5" markerUnits="strokeWidth" orient="auto"><path stroke="none" fill="#8753dd" d="M0,0 h5 q5,0 5,5 q0,5 -5,5 h-5 z"></path><path stroke-width="1" stroke="#000" d="M0,5 h4"></path><circle cx="4" cy="5" r="2"></circle></marker></defs><path stroke="#000" stroke-width="2" fill="none" d="M 144,1076 L 144,1076 L 144,1126" marker-end="url(#end-flow-13)"></path><path stroke="none" stroke-width="2" fill="none" d="M 144,1126 L 144,1126 L 144,1076" marker-end="url(#start-flow-13)"></path></g><g><defs><marker id="n348" viewBox="0 0 10 10" markerWidth="3" markerHeight="3" refX="0" refY="5" markerUnits="strokeWidth" orient="auto"><path d="M0,0 L0,10 L10,5 z" data-viz="edge-arrow"></path></marker></defs><circle r="3" cx="122.83333333333334" cy="50" fill="#000"></circle><path d="M 122.83333333333334,50 Q 122.83333333333334,57 126.33333333333334,57 L 127.33333333333334, 57" stroke="#000" stroke-width="2" fill="none" marker-end="url(#n348)" pathLength="1"></path></g></svg></svg><svg x1="0" y1="0" width="100%" height="100%"></svg></svg>