<svg xmlns="http://www.w3.org/2000/svg" width="320" height="695"><rect x="12" y="12" width="296" height="671" rx="4" ry="4" fill="none" stroke="#ffdf92"></rect><svg width="16" height="16" x="37" y="37" viewBox="0 0 16 16" fill="none" xmlns="http://www.w3.org/2000/svg"><g clip-path="url(#clip0_1343_12511)"><path d="M12.278 13.5H3.722C3.04667 13.5 2.5 12.9527 2.5 12.278V3.722C2.5 3.04667 3.04733 2.5 3.722 2.5H12.2773C12.9527 2.5 13.4993 3.04733 13.4993 3.722V12.2773C13.5 12.9527 12.9527 13.5 12.278 13.5V13.5Z" stroke="#FFCF5C" stroke-width="1.5" stroke-linecap="round" stroke-linejoin="round"></path></g><defs><clipPath id="clip0_1343_12511"><rect width="16" height="16" fill="white"></rect></clipPath></defs></svg><text font-weight="600" x="57" y="50" width="226" height="10">Onboarding</text><path d="M 37 57 L 283 57" stroke="#ffdf92"></path><svg x="12" y="12" width="296" height="671"><rect x="41" y="50" width="214" height="93" rx="4" ry="4" fill="#ffefc919" stroke="#ffdf92"></rect><svg width="16" height="16" x="66" y="75" viewBox="0 0 16 16" fill="none" xmlns="http://www.w3.org/2000/svg"><g clip-path="url(#clip0_1343_12511)"><path d="M12.278 13.5H3.722C3.04667 13.5 2.5 12.9527 2.5 12.278V3.722C2.5 3.04667 3.04733 2.5 3.722 2.5H12.2773C12.9527 2.5 13.4993 3.04733 13.4993 3.722V12.2773C13.5 12.9527 12.9527 13.5 12.278 13.5V13.5Z" stroke="#FFCF5C" stroke-width="1.5" stroke-linecap="round" stroke-linejoin="round"></path></g><defs><clipPath id="clip0_1343_12511"><rect width="16" height="16" fill="white"></rect></clipPath></defs></svg><text font-weight="600" x="86" y="88" width="144" height="10">Send welcome email</text><path d="M 66 95 L 230 95" stroke="#ffdf92"></path><svg width="16" height="16" x="66" y="102" viewBox="0 0 16 16" fill="none" xmlns="http://www.w3.org/2000/svg"><g clip-path="url(#clip0_217_22)"><mask id="mask0_217_22" maskUnits="userSpaceOnUse" x="0" y="0" width="16" height="16" style="mask-type: luminance;"><path d="M16 0H0V16H16V0Z" fill="white"></path></mask><g mask="url(#mask0_217_22)"><path d="M12.5486 7.71666L8.54124 13.5053C8.1739 14.0353 7.34257 13.776 7.34257 13.1307V9.31533H3.99257C3.4619 9.31533 3.14924 8.71933 3.4519 8.28266L7.45924 2.49399C7.82657 1.96399 8.6579 2.22333 8.6579 2.86866V6.68399H12.0079C12.5379 6.68399 12.8506 7.27999 12.5486 7.71666Z" stroke="#00A3FF" stroke-width="1.5" stroke-linecap="round" stroke-linejoin="round"></path></g><path d="M3 11L5 13" stroke="#00A3FF" stroke-width="1.5" stroke-linecap="round"></path><path d="M3 15.0096L4.9997 13.0099" stroke="#00A3FF" stroke-width="1.5" stroke-linecap="round"></path></g><defs><clipPath id="clip0_217_22"><rect width="16" height="16" fill="white"></rect></clipPath></defs></svg><text x="86" y="118" width="144" height="16.2">Send welcome email</text><rect x="25" y="313" width="246" height="70" rx="4" ry="4" fill="#ffefc919" stroke="#ffdf92"></rect><svg width="16" height="16" x="50" y="340" viewBox="0 0 16 16" fill="none" xmlns="http://www.w3.org/2000/svg"><g clip-path="url(#clip0_1343_12511)"><path d="M12.278 13.5H3.722C3.04667 13.5 2.5 12.9527 2.5 12.278V3.722C2.5 3.04667 3.04733 2.5 3.722 2.5H12.2773C12.9527 2.5 13.4993 3.04733 13.4993 3.722V12.2773C13.5 12.9527 12.9527 13.5 12.278 13.5V13.5Z" stroke="#FFCF5C" stroke-width="1.5" stroke-linecap="round" stroke-linejoin="round"></path></g><defs><clipPath id="clip0_1343_12511"><rect width="16" height="16" fill="white"></rect></clipPath></defs></svg><text font-weight="600" x="70" y="353" width="176" height="10">Await first drip email</text><rect x="29" y="553" width="238" height="93" rx="4" ry="4" fill="#ffefc919" stroke="#ffdf92"></rect><svg width="16" height="16" x="54" y="578" viewBox="0 0 16 16" fill="none" xmlns="http://www.w3.org/2000/svg"><g clip-path="url(#clip0_1343_12511)"><path d="M12.278 13.5H3.722C3.04667 13.5 2.5 12.9527 2.5 12.278V3.722C2.5 3.04667 3.04733 2.5 3.722 2.5H12.2773C12.9527 2.5 13.4993 3.04733 13.4993 3.722V12.2773C13.5 12.9527 12.9527 13.5 12.278 13.5V13.5Z" stroke="#FFCF5C" stroke-width="1.5" stroke-linecap="round" stroke-linejoin="round"></path></g><defs><clipPath id="clip0_1343_12511"><rect width="16" height="16" fill="white"></rect></clipPath></defs></svg><text font-weight="600" x="74" y="591" width="168" height="10">Send first drip email</text><path d="M 54 598 L 242 598" stroke="#ffdf92"></path><svg width="16" height="16" x="54" y="605" viewBox="0 0 16 16" fill="none" xmlns="http://www.w3.org/2000/svg"><g clip-path="url(#clip0_217_22)"><mask id="mask0_217_22" maskUnits="userSpaceOnUse" x="0" y="0" width="16" height="16" style="mask-type: luminance;"><path d="M16 0H0V16H16V0Z" fill="white"></path></mask><g mask="url(#mask0_217_22)"><path d="M12.5486 7.71666L8.54124 13.5053C8.1739 14.0353 7.34257 13.776 7.34257 13.1307V9.31533H3.99257C3.4619 9.31533 3.14924 8.71933 3.4519 8.28266L7.45924 2.49399C7.82657 1.96399 8.6579 2.22333 8.6579 2.86866V6.68399H12.0079C12.5379 6.68399 12.8506 7.27999 12.5486 7.71666Z" stroke="#00A3FF" stroke-width="1.5" stroke-linecap="round" stroke-linejoin="round"></path></g><path d="M3 11L5 13" stroke="#00A3FF" stroke-width="1.5" stroke-linecap="round"></path><path d="M3 15.0096L4.9997 13.0099" stroke="#00A3FF" stroke-width="1.5" stroke-linecap="round"></path></g><defs><clipPath id="clip0_217_22"><rect width="16" height="16" fill="white"></rect></clipPath></defs></svg><text x="74" y="621" width="168" height="16.2">Send first drip email</text><rect x="41" y="193" width="214" height="70" rx="4" ry="4" fill="#cebdff66" stroke="#a88aff"></rect><svg width="16" height="16" x="66" y="220" viewBox="0 0 16 16" fill="none" xmlns="http://www.w3.org/2000/svg"><g clip-path="url(#clip0_1343_12529)"><path d="M5.37063 7.99998L3.18317 10.1876C2.93894 10.4318 2.93894 10.8272 3.18317 11.0709L4.92902 12.8168C5.17325 13.0611 5.56864 13.0611 5.81225 12.8168L7.99971 10.6292L9.30894 11.9385C9.63749 12.2671 10.1965 12.1347 10.3433 11.6943L12.9668 3.82281C13.1298 3.33494 12.6651 2.87018 12.1766 3.03322L4.30564 5.65684C3.86527 5.80364 3.73285 6.36272 4.06141 6.6913L5.37063 7.99998Z" stroke="#8753DD" stroke-width="1.5" stroke-linecap="round" stroke-linejoin="round"></path></g><defs><clipPath id="clip0_1343_12529"><rect width="16" height="16" fill="white"></rect></clipPath></defs></svg><text font-weight="600" x="86" y="233" width="144" height="10">Sent welcome email</text><rect x="69" y="433" width="158" height="70" rx="4" ry="4" fill="#cebdff66" stroke="#a88aff"></rect><svg width="16" height="16" x="94" y="460" viewBox="0 0 16 16" fill="none" xmlns="http://www.w3.org/2000/svg"><g clip-path="url(#clip0_1343_12529)"><path d="M5.37063 7.99998L3.18317 10.1876C2.93894 10.4318 2.93894 10.8272 3.18317 11.0709L4.92902 12.8168C5.17325 13.0611 5.56864 13.0611 5.81225 12.8168L7.99971 10.6292L9.30894 11.9385C9.63749 12.2671 10.1965 12.1347 10.3433 11.6943L12.9668 3.82281C13.1298 3.33494 12.6651 2.87018 12.1766 3.03322L4.30564 5.65684C3.86527 5.80364 3.73285 6.36272 4.06141 6.6913L5.37063 7.99998Z" stroke="#8753DD" stroke-width="1.5" stroke-linecap="round" stroke-linejoin="round"></path></g><defs><clipPath id="clip0_1343_12529"><rect width="16" height="16" fill="white"></rect></clipPath></defs></svg><text font-weight="600" x="114" y="473" width="88" height="10">After 1 day</text><svg x1="0" y1="0" width="100%" height="100%"><g><defs><marker id="end-flow-0" viewBox="0 0 10 10" markerWidth="7" markerHeight="7" refX="0" refY="5" markerUnits="strokeWidth" orient="auto"><path stroke="none" fill="#8753dd" d="M0,0 h5 q5,0 5,5 q0,5 -5,5 h-5 z"></path><path stroke-width="1" stroke="#000" d="M0,5 h4"></path><circle cx="4" cy="5" r="2"></circle></marker><marker id="start-flow-0" viewBox="0 0 10 10" markerWidth="7" markerHeight="7" refX="0" refY="5" markerUnits="strokeWidth" orient="auto"><path stroke="none" fill="#ffcf5c" d="M0,0 h5 q5,0 5,5 q0,5 -5,5 h-5 z"></path><path stroke-width="1" stroke="#000" d="M0,5 h4"></path><circle cx="4" cy="5" r="2"></circle></marker></defs><path stroke="#000" stroke-width="2" fill="none" d="M 148,143 L 148,143 L 148,193" marker-end="url(#end-flow-0)"></path><path stroke="none" stroke-width="2" fill="none" d="M 148,193 L 148,193 L 148,143" marker-end="url(#start-flow-0)"></path></g><g><defs><marker id="end-flow-1" viewBox="0 0 10 10" markerWidth="7" markerHeight="7" refX="0" refY="5" markerUnits="strokeWidth" orient="auto"><path stroke="none" fill="#ffcf5c" d="M0,0 h5 q5,0 5,5 q0,5 -5,5 h-5 z"></path><path stroke="none" fill="#000" d="M1.43,5 L2,5 L2,2 L8.57,5 L2,8.57 L2,5 z"></path><path stroke="#000" fill="none" stroke-width="1" d="M0,5 L2,5"></path></marker><marker id="start-flow-1" viewBox="0 0 10 10" markerWidth="7" markerHeight="7" refX="0" refY="5" markerUnits="strokeWidth" orient="auto"><path stroke="none" fill="#8753dd" d="M0,0 h5 q5,0 5,5 q0,5 -5,5 h-5 z"></path><path stroke-width="1" stroke="#000" d="M0,5 h4"></path><circle cx="4" cy="5" r="2"></circle></marker></defs><path stroke="#000" stroke-width="2" fill="none" d="M 148,263 L 148,263 L 148,313" marker-end="url(#end-flow-1)"></path><path stroke="none" stroke-width="2" fill="none" d="M 148,313 L 148,313 L 148,263" marker-end="url(#start-flow-1)"></path></g><g><defs><marker id="end-flow-2" viewBox="0 0 10 10" markerWidth="7" markerHeight="7" refX="0" refY="5" markerUnits="strokeWidth" orient="auto"><path stroke="none" fill="#8753dd" d="M0,0 h5 q5,0 5,5 q0,5 -5,5 h-5 z"></path><path stroke-width="1" stroke="#000" d="M0,5 h4"></path><circle cx="4" cy="5" r="2"></circle></marker><marker id="start-flow-2" viewBox="0 0 10 10" markerWidth="7" markerHeight="7" refX="0" refY="5" markerUnits="strokeWidth" orient="auto"><path stroke="none" fill="#ffcf5c" d="M0,0 h5 q5,0 5,5 q0,5 -5,5 h-5 z"></path><path stroke-width="1" stroke="#000" d="M0,5 h4"></path><circle cx="4" cy="5" r="2"></circle></marker></defs><path stroke="#000" stroke-width="2" fill="none" d="M 148,383 L 148,383 L 148,433" marker-end="url(#end-flow-2)"></path><path stroke="none" stroke-width="2" fill="none" d="M 148,433 L 148,433 L 148,383" marker-end="url(#start-flow-2)"></path></g><g><defs><marker id="end-flow-3" viewBox="0 0 10 10" markerWidth="7" markerHeight="7" refX="0" refY="5" markerUnits="strokeWidth" orient="auto"><path stroke="none" fill="#ffcf5c" d="M0,0 h5 q5,0 5,5 q0,5 -5,5 h-5 z"></path><path stroke="none" fill="#000" d="M1.43,5 L2,5 L2,2 L8.57,5 L2,8.57 L2,5 z"></path><path stroke="#000" fill="none" stroke-width="1" d="M0,5 L2,5"></path></marker><marker id="start-flow-3" viewBox="0 0 10 10" markerWidth="7" markerHeight="7" refX="0" refY="5" markerUnits="strokeWidth" orient="auto"><path stroke="none" fill="#8753dd" d="M0,0 h5 q5,0 5,5 q0,5 -5,5 h-5 z"></path><path stroke-width="1" stroke="#000" d="M0,5 h4"></path><circle cx="4" cy="5" r="2"></circle></marker></defs><path stroke="#000" stroke-width="2" fill="none" d="M 148,503 L 148,503 L 148,553" marker-end="url(#end-flow-3)"></path><path stroke="none" stroke-width="2" fill="none" d="M 148,553 L 148,553 L 148,503" marker-end="url(#start-flow-3)"></path></g><g><defs><marker id="n891" viewBox="0 0 10 10" markerWidth="3" markerHeight="3" refX="0" refY="5" markerUnits="strokeWidth" orient="auto"><path d="M0,0 L0,10 L10,5 z" data-viz="edge-arrow"></path></marker></defs><circle r="3" cx="30.5" cy="50" fill="#000"></circle><path d="M 30.5,50 Q 30.5,57 34,57 L 35, 57" stroke="#000" stroke-width="2" fill="none" marker-end="url(#n891)" pathLength="1"></path></g></svg></svg><svg x1="0" y1="0" width="100%" height="100%"></svg></svg>